<?xml version="1.0" standalone="no"?>
<!DOCTYPE svg PUBLIC "-//W3C//DTD SVG 20010904//EN"
 "http://www.w3.org/TR/2001/REC-SVG-20010904/DTD/svg10.dtd">
<svg version="1.0" xmlns="http://www.w3.org/2000/svg"
 width="512.000000pt" height="512.000000pt" viewBox="0 0 512.000000 512.000000"
 preserveAspectRatio="xMidYMid meet">

<g transform="translate(0.000000,512.000000) scale(0.100000,-0.100000)"
fill="#000000" stroke="none">
<path d="M481 4470 c-199 -53 -353 -205 -418 -415 -17 -57 -18 -122 -18 -1230
0 -1285 -3 -1216 62 -1354 46 -97 158 -211 253 -258 129 -64 109 -63 927 -63
409 0 743 -3 743 -7 0 -5 -115 -69 -256 -143 -141 -74 -267 -145 -280 -158
-35 -36 -40 -83 -15 -134 26 -55 70 -82 120 -75 21 3 230 108 499 250 l463
245 462 -246 c496 -264 509 -269 571 -229 57 38 72 143 27 191 -12 13 -136 83
-276 157 -140 74 -255 137 -255 142 0 4 334 7 743 7 818 0 798 -1 927 63 94
46 205 160 252 257 66 138 63 68 63 1355 0 1108 -1 1173 -18 1230 -32 102 -87
195 -157 265 -78 77 -160 123 -266 150 -76 20 -117 20 -2078 19 -1945 0 -2003
-1 -2075 -19z m4153 -269 c66 -33 122 -91 155 -160 l26 -56 0 -1170 0 -1170
-23 -46 c-37 -75 -87 -125 -160 -161 l-67 -33 -2005 0 -2005 0 -67 33 c-73 36
-123 86 -160 161 l-23 46 -3 1149 c-3 1265 -6 1202 59 1299 34 51 96 100 157
122 31 11 363 13 2052 12 l2015 -2 49 -24z"/>
<path d="M1311 3393 c-23 -12 -40 -31 -53 -60 -22 -50 -18 -88 14 -129 38 -47
71 -54 267 -54 l180 0 3 -412 c3 -373 5 -416 21 -445 33 -62 128 -84 181 -42
56 44 56 43 56 489 l0 410 183 1 c114 0 195 5 216 12 96 34 107 173 18 227
-31 19 -54 20 -542 20 -456 0 -514 -2 -544 -17z"/>
<path d="M2794 3396 c-17 -7 -40 -26 -52 -41 -45 -57 -41 -70 210 -584 127
-262 243 -489 258 -504 50 -52 149 -46 188 12 26 38 469 951 477 983 4 17 0
42 -13 70 -33 75 -117 98 -187 52 -25 -16 -114 -189 -317 -613 -32 -68 -60
-122 -62 -120 -2 2 -78 159 -170 349 -93 192 -180 358 -195 373 -33 34 -92 44
-137 23z"/>
</g>
</svg>
